<svg id="Layer_1" data-name="Layer 1" xmlns="http://www.w3.org/2000/svg" viewBox="0 0 1998.42 765.84"><defs><style>.cls-1{fill:#f2ca30;}.cls-2{fill:#4da3dd;}.cls-3{fill:#cf4329;}.cls-4{fill:#262424;}</style></defs><title>elo-seeklogo</title><path class="cls-1" d="M481.74,338.35a225,225,0,0,1,71.44-11.53c109,0,200,77.4,220.79,180.28l154.47-31.5C893,300.76,738.48,169.18,553.18,169.18a382.63,382.63,0,0,0-121.41,19.66Z" transform="translate(-170.2 -169.18)"/><path class="cls-2" d="M299.44,839,403.9,720.87a225.23,225.23,0,0,1-.06-337.41L299.35,265.34C220.17,335.5,170.2,438,170.2,552.1A382.12,382.12,0,0,0,299.44,839" transform="translate(-170.2 -169.18)"/><path class="cls-3" d="M773.93,597.31C753,700.14,662.12,777.39,553.18,777.39a223.92,223.92,0,0,1-71.51-11.58l-50,149.57A383.15,383.15,0,0,0,553.18,935c185.12,0,339.61-131.37,375.2-306Z" transform="translate(-170.2 -169.18)"/><path class="cls-4" d="M1063.52,725.85a273.45,273.45,0,0,1-16.09-31c-24.46-56.79-25.63-115.56-5-172,22.71-61.87,66.1-109.24,122.16-133.36,70.48-30.33,148.42-24.35,216,15.73,42.91,24.62,73.32,62.63,96.43,116.38,2.94,6.87,5.53,14.23,8,20.47Zm140.77-245.13c-50.06,21.51-75.86,68.46-70.55,123.51l212-91.26C1309.3,470.13,1261.85,455.93,1204.29,480.72ZM1372.2,679.26l-.12.12-4.4-3c-12.65,20.54-32.38,37.17-57.3,48C1263,745,1219.07,739.69,1187.53,712l-2.9,4.41c0-.05-.05-.09-.09-.09l-53.79,80.47a230.63,230.63,0,0,0,42.75,23.42c59.41,24.68,120.21,23.54,180.1-2.51,43.32-18.76,77.3-47.4,100.54-83.68Z" transform="translate(-170.2 -169.18)"/><path class="cls-4" d="M1632.44,271V718.42L1702,746.61l-39.52,92.22-76.78-32c-17.23-7.46-29-18.88-37.84-31.77-8.49-13.15-14.84-31.17-14.84-55.45V271Z" transform="translate(-170.2 -169.18)"/><path class="cls-4" d="M1812.63,604.45A126.51,126.51,0,0,1,1856.11,509l-71.36-79.57a233.75,233.75,0,0,0-.22,350.08l71.27-79.65A126.56,126.56,0,0,1,1812.63,604.45Z" transform="translate(-170.2 -169.18)"/><path class="cls-4" d="M1939.42,731.43a128.34,128.34,0,0,1-40.2-6.57l-34.08,101.33a233.8,233.8,0,0,0,74.17,12.12c113,.11,207.35-80.07,229.2-186.64l-104.75-21.39A126.92,126.92,0,0,1,1939.42,731.43Z" transform="translate(-170.2 -169.18)"/><path class="cls-4" d="M1939.73,370.82a233.27,233.27,0,0,0-74.1,11.93l33.77,101.41a126.93,126.93,0,0,1,164.46,95.17l104.76-21.24C2147.07,451.36,2052.81,370.89,1939.73,370.82Z" transform="translate(-170.2 -169.18)"/></svg>